<svg viewBox="0 0 256 256" xmlns="http://www.w3.org/2000/svg" role="img" aria-label="MatrixPro">
  <defs>
    <linearGradient id="bg" x1="0" y1="0" x2="1" y2="1">
      <stop offset="0%"  stop-color="#11243f"/>
      <stop offset="100%" stop-color="#0a1628"/>
    </linearGradient>
  </defs>
  <rect width="256" height="256" rx="56" fill="url(#bg)"/>
  <g fill="none" stroke="#7cc1ff" stroke-width="6" stroke-linecap="round">
    <path d="M 60 44 Q 36 44 36 68 L 36 188 Q 36 212 60 212"/>
    <path d="M 196 44 Q 220 44 220 68 L 220 188 Q 220 212 196 212"/>
  </g>
  <rect x="64"  y="60"  width="36" height="36" rx="8" fill="#5cb1ff"/>
  <circle cx="128" cy="78" r="16" fill="none" stroke="#5cb1ff" stroke-width="4"/>
  <g transform="translate(156 60)">
    <rect width="36" height="36" rx="8" fill="#5cb1ff"/>
    <path d="M 9 19 L 16 26 L 27 13" fill="none" stroke="#0a1628" stroke-width="4" stroke-linecap="round" stroke-linejoin="round"/>
  </g>
  <circle cx="82"  cy="128" r="16" fill="none" stroke="#5cb1ff" stroke-width="4"/>
  <rect   x="110" y="110" width="36" height="36" rx="8" fill="#5cb1ff"/>
  <g transform="translate(156 110)">
    <rect width="36" height="36" rx="8" fill="#5cb1ff"/>
    <path d="M 9 19 L 16 26 L 27 13" fill="none" stroke="#0a1628" stroke-width="4" stroke-linecap="round" stroke-linejoin="round"/>
  </g>
  <rect   x="64"  y="160" width="36" height="36" rx="8" fill="#5cb1ff"/>
  <g transform="translate(110 160)">
    <rect width="36" height="36" rx="8" fill="#5cb1ff"/>
    <path d="M 9 19 L 16 26 L 27 13" fill="none" stroke="#0a1628" stroke-width="4" stroke-linecap="round" stroke-linejoin="round"/>
  </g>
  <circle cx="174" cy="178" r="16" fill="none" stroke="#5cb1ff" stroke-width="4"/>
</svg>
